# xmcd CD database file
#
# Track frame offsets:
#	150
#	24670
#	45902
#	61129
#	81497
#	111387
#	127843
#	147124
#	158979
#	179350
#	202738
#	219598
#	235856
#	250818
#	273655
#
# Disc length: 3874 seconds
#
# Revision: 0
# Processed by: cddbd v1.5.2PL0 Copyright (c) Steve Scherf et al.
# Submitted via: CDex 1.70beta2
#
DISCID=cf0f200f
DTITLE=Jarvis Perception - Nighttime
DYEAR=2004
DGENRE=Blues
TTITLE0=Make My Day
TTITLE1=Nighttime
TTITLE2=Red House
TTITLE3=Little Wing
TTITLE4=I Wonder Who
TTITLE5=I Can't Stand The Rain
TTITLE6=Nobody Knows When You're Down And Out
TTITLE7=The Life You Want To Lead
TTITLE8=Just Can't
TTITLE9=Roadhouse Blues
TTITLE10=Sweetgirl Like You
TTITLE11=Mustang Sally
TTITLE12=Something
TTITLE13=The Life You Want to Lead
TTITLE14=Little Wing
EXTD=YEAR: 2004
EXTT0=
EXTT1=
EXTT2=
EXTT3=
EXTT4=
EXTT5=
EXTT6=
EXTT7=
EXTT8=
EXTT9=
EXTT10=
EXTT11=
EXTT12=
EXTT13=
EXTT14=
PLAYORDER=
